<?xml version="1.0" encoding="UTF-8"?>
<svg xmlns="http://www.w3.org/2000/svg" xmlns:xlink="http://www.w3.org/1999/xlink" width="200pt" height="200pt" viewBox="0 0 200 200" version="1.1">
<g id="surface1">
<path style=" stroke:none;fill-rule:nonzero;fill:rgb(0%,0%,0%);fill-opacity:1;" d="M 54.546875 103.171875 C 36.550781 103.152344 20.253906 113.800781 13.050781 130.289062 C 5.84375 146.78125 9.097656 165.972656 21.339844 179.164062 C 22.109375 180.027344 22.925781 180.84375 23.785156 181.617188 C 38.652344 195.425781 60.890625 197.65625 78.203125 187.074219 C 95.519531 176.492188 103.675781 155.683594 98.167969 136.160156 C 92.664062 116.628906 74.835938 103.148438 54.546875 103.171875 Z M 57.78125 148.445312 C 57.78125 150.230469 56.332031 151.679688 54.546875 151.679688 L 35.144531 151.679688 C 33.355469 151.679688 31.910156 150.230469 31.910156 148.445312 C 31.910156 146.660156 33.355469 145.210938 35.144531 145.210938 L 51.3125 145.210938 L 51.3125 116.105469 C 51.3125 114.320312 52.761719 112.871094 54.546875 112.871094 C 56.332031 112.871094 57.78125 114.320312 57.78125 116.105469 Z M 57.78125 148.445312 "/>
<path style=" stroke:none;fill-rule:nonzero;fill:rgb(0%,0%,0%);fill-opacity:1;" d="M 190.367188 57.898438 L 22.207031 57.898438 L 22.207031 108.085938 C 22.683594 107.707031 23.179688 107.367188 23.675781 107.003906 C 24.175781 106.636719 24.644531 106.277344 25.132812 105.933594 C 26.132812 105.242188 27.160156 104.597656 28.207031 103.992188 C 28.5625 103.78125 28.902344 103.550781 29.261719 103.347656 C 30.667969 102.554688 32.113281 101.835938 33.585938 101.179688 C 33.988281 101.003906 34.398438 100.855469 34.804688 100.691406 C 35.914062 100.234375 37.027344 99.800781 38.164062 99.417969 C 38.714844 99.234375 39.269531 99.078125 39.824219 98.914062 C 40.855469 98.601562 41.898438 98.324219 42.953125 98.082031 C 43.53125 97.949219 44.109375 97.820312 44.695312 97.703125 C 45.804688 97.488281 46.921875 97.320312 48.042969 97.175781 C 48.5625 97.109375 49.078125 97.027344 49.597656 96.976562 C 51.238281 96.816406 52.886719 96.71875 54.546875 96.71875 C 83.101562 96.75 106.246094 119.890625 106.289062 148.445312 C 106.289062 150.105469 106.1875 151.753906 106.027344 153.390625 C 105.976562 153.914062 105.890625 154.425781 105.828125 154.945312 C 105.683594 156.070312 105.503906 157.1875 105.300781 158.292969 C 105.183594 158.878906 105.054688 159.457031 104.921875 160.035156 C 104.679688 161.09375 104.398438 162.140625 104.085938 163.179688 C 103.925781 163.726562 103.765625 164.277344 103.582031 164.820312 C 103.199219 165.976562 102.757812 167.113281 102.289062 168.238281 C 102.132812 168.621094 101.996094 169.011719 101.828125 169.390625 C 101.167969 170.878906 100.441406 172.332031 99.644531 173.753906 C 99.464844 174.074219 99.253906 174.375 99.070312 174.691406 C 98.421875 175.78125 97.757812 176.851562 97.035156 177.886719 C 96.710938 178.359375 96.359375 178.8125 96.015625 179.273438 C 95.671875 179.730469 95.300781 180.296875 94.902344 180.78125 L 180.664062 180.78125 C 186.023438 180.78125 190.367188 176.4375 190.367188 171.082031 Z M 190.367188 57.898438 "/>
<path style=" stroke:none;fill-rule:nonzero;fill:rgb(0%,0%,0%);fill-opacity:1;" d="M 190.367188 35.261719 C 190.367188 29.902344 186.023438 25.558594 180.664062 25.558594 L 174.195312 25.558594 L 174.195312 35.261719 C 174.195312 37.046875 172.75 38.496094 170.960938 38.496094 C 169.175781 38.496094 167.730469 37.046875 167.730469 35.261719 L 167.730469 25.558594 L 141.859375 25.558594 L 141.859375 35.261719 C 141.859375 37.046875 140.410156 38.496094 138.625 38.496094 C 136.839844 38.496094 135.390625 37.046875 135.390625 35.261719 L 135.390625 25.558594 L 109.519531 25.558594 L 109.519531 35.261719 C 109.519531 37.046875 108.074219 38.496094 106.289062 38.496094 C 104.5 38.496094 103.054688 37.046875 103.054688 35.261719 L 103.054688 25.558594 L 77.183594 25.558594 L 77.183594 35.261719 C 77.183594 37.046875 75.734375 38.496094 73.949219 38.496094 C 72.164062 38.496094 70.714844 37.046875 70.714844 35.261719 L 70.714844 25.558594 L 44.84375 25.558594 L 44.84375 35.261719 C 44.84375 37.046875 43.398438 38.496094 41.609375 38.496094 C 39.824219 38.496094 38.378906 37.046875 38.378906 35.261719 L 38.378906 25.558594 L 31.910156 25.558594 C 26.550781 25.558594 22.207031 29.902344 22.207031 35.261719 L 22.207031 51.429688 L 190.367188 51.429688 Z M 190.367188 35.261719 "/>
<path style=" stroke:none;fill-rule:nonzero;fill:rgb(0%,0%,0%);fill-opacity:1;" d="M 106.289062 6.15625 C 104.5 6.15625 103.054688 7.605469 103.054688 9.390625 L 103.054688 25.558594 L 109.519531 25.558594 L 109.519531 9.390625 C 109.519531 7.605469 108.074219 6.15625 106.289062 6.15625 Z M 106.289062 6.15625 "/>
<path style=" stroke:none;fill-rule:nonzero;fill:rgb(0%,0%,0%);fill-opacity:1;" d="M 138.625 6.15625 C 136.839844 6.15625 135.390625 7.605469 135.390625 9.390625 L 135.390625 25.558594 L 141.859375 25.558594 L 141.859375 9.390625 C 141.859375 7.605469 140.410156 6.15625 138.625 6.15625 Z M 138.625 6.15625 "/>
<path style=" stroke:none;fill-rule:nonzero;fill:rgb(0%,0%,0%);fill-opacity:1;" d="M 174.195312 9.390625 C 174.195312 7.605469 172.75 6.15625 170.960938 6.15625 C 169.175781 6.15625 167.730469 7.605469 167.730469 9.390625 L 167.730469 25.558594 L 174.195312 25.558594 Z M 174.195312 9.390625 "/>
<path style=" stroke:none;fill-rule:nonzero;fill:rgb(0%,0%,0%);fill-opacity:1;" d="M 73.949219 6.15625 C 72.164062 6.15625 70.714844 7.605469 70.714844 9.390625 L 70.714844 25.558594 L 77.183594 25.558594 L 77.183594 9.390625 C 77.183594 7.605469 75.734375 6.15625 73.949219 6.15625 Z M 73.949219 6.15625 "/>
<path style=" stroke:none;fill-rule:nonzero;fill:rgb(0%,0%,0%);fill-opacity:1;" d="M 41.609375 6.15625 C 39.824219 6.15625 38.378906 7.605469 38.378906 9.390625 L 38.378906 25.558594 L 44.84375 25.558594 L 44.84375 9.390625 C 44.84375 7.605469 43.398438 6.15625 41.609375 6.15625 Z M 41.609375 6.15625 "/>
</g>
</svg>
